<svg width="2345" height="351" viewBox="0 0 2345 351" fill="none" xmlns="http://www.w3.org/2000/svg">
<path d="M121.89 127.097L173.747 127.005C174.344 127.005 174.83 127.487 174.832 128.085L174.922 179.752C174.922 180.35 174.438 180.836 173.84 180.839L121.984 180.931C121.387 180.931 120.901 180.446 120.898 179.848L120.809 128.184C120.809 127.582 121.293 127.097 121.89 127.097Z" fill="#FB7559"/>
<path d="M295.074 6.40063H122.037C121.514 6.40063 121.252 6.66383 121.252 7.18672V81.0379C121.252 81.472 121.603 81.824 122.037 81.824H218.922C219.76 81.824 220.177 82.2444 220.177 83.0783L220.694 226.669L295.856 227.172V7.18672C295.856 6.75269 295.508 6.40063 295.074 6.40063Z" fill="#212121"/>
<path d="M295.853 226.813H287.063C264.746 226.885 242.62 226.721 220.69 226.31H76.4056C75.7145 226.31 75.37 225.965 75.37 225.271L75.3218 7.12517C75.3218 6.95087 75.2593 6.7834 75.1462 6.65353C74.8861 6.34937 74.4309 6.31516 74.1277 6.57489C74.1277 6.57489 0 81.4924 0 82.3092V301.45C0 301.973 0.262473 302.236 0.785026 302.236L221.867 302.253C222.082 302.253 224.126 300.148 227.36 296.655L295.853 226.813Z" fill="#F40E00"/>
<path d="M440.957 6.42395V158.403H509.158V227.16H356V6.42395H440.957ZM620.285 194.442L614.154 227.16H522.47L587.233 6.42395H695.667L760.43 227.16H668.746L662.764 194.442H620.285ZM653.039 142.119L641.527 79.8545L630.009 142.119H653.039ZM878.439 6.42395H967.132V142.119C967.132 158.907 962.395 174.236 952.921 188.105C943.548 201.981 930.934 213.033 915.084 221.28C899.228 229.521 881.68 233.641 862.434 233.641C843.188 233.641 825.64 229.521 809.785 221.28C793.935 213.033 781.267 201.981 771.799 188.105C762.426 174.236 757.737 158.907 757.737 142.119V6.42395H846.43V137.752C846.43 142.678 847.979 146.894 851.065 150.414C854.259 153.934 858.049 155.694 862.434 155.694C866.82 155.694 870.562 153.934 873.654 150.414C876.842 146.894 878.439 142.678 878.439 137.752V6.42395ZM1137.49 6.42395H1215.56V227.16H1137.49L1072.28 126.742V227.16H994.052V6.42395H1072.28L1137.49 106.842V6.42395ZM1411.35 153.88V225.496C1393.2 231.028 1375.8 233.792 1359.14 233.792C1329.33 233.792 1305.65 228.764 1288.1 218.715C1270.65 208.66 1256.89 194.941 1246.82 177.552C1236.85 160.067 1231.76 140.011 1231.57 117.396C1231.76 94.6788 1236.85 74.6228 1246.82 57.2337C1256.89 39.7485 1270.65 26.0294 1288.1 16.0765C1305.65 6.02148 1329.33 1 1359.14 1C1375.8 1 1393.2 3.76297 1411.35 9.28904V80.9057C1397.79 74.8751 1383.97 71.8598 1369.92 71.8598C1353.96 71.8598 1341.95 75.6319 1333.87 83.1702C1325.89 90.6063 1321.9 102.019 1321.9 117.396C1321.9 132.773 1325.89 144.233 1333.87 151.771C1341.95 159.208 1353.96 162.926 1369.92 162.926C1383.97 162.926 1397.79 159.911 1411.35 153.88ZM1560.16 147.098H1516.19V227.16H1433.18V6.42395H1516.19V86.4858H1560.16V6.42395H1643.02V227.16H1560.16V147.098Z" fill="#212121"/>
<path d="M1740.34 61.1175V90.0813H1758.39C1762.33 90.0813 1765.77 88.6676 1768.7 85.834C1771.64 83.1032 1773.1 79.7198 1773.1 75.6719C1773.1 71.63 1771.64 68.1923 1768.7 65.3588C1765.77 62.5313 1762.33 61.1175 1758.39 61.1175H1740.34ZM1774.92 167.27C1777.85 163.935 1779.31 160.044 1779.31 155.597C1779.31 150.945 1777.65 146.897 1774.31 143.46C1770.77 140.125 1766.68 138.457 1762.03 138.457H1740.34V172.429H1763.55C1768.2 172.429 1771.99 170.707 1774.92 167.27ZM1817.53 107.675C1846.04 117.178 1860.3 135.424 1860.3 162.418C1860.3 183.957 1853.58 200.179 1840.13 211.102C1826.68 222.019 1811.42 227.481 1794.33 227.481H1663V5.45563H1787.2C1805.91 5.45563 1820.97 10.4097 1832.4 20.3181C1843.82 30.2264 1849.53 43.4215 1849.53 59.9031C1849.53 84.1665 1838.87 100.092 1817.53 107.675ZM1942.95 117.378C1942.95 126.778 1944.92 134.868 1948.87 141.641C1952.81 148.414 1958.06 153.621 1964.64 157.265C1971.31 160.799 1978.64 162.569 1986.63 162.569C1994.62 162.569 2001.9 160.799 2008.46 157.265C2015.14 153.621 2020.44 148.414 2024.39 141.641C2028.33 134.868 2030.3 126.778 2030.3 117.378C2030.3 107.977 2028.33 99.8386 2024.39 92.9632C2020.44 86.0877 2015.14 80.7771 2008.46 77.0373C2001.9 73.2975 1994.62 71.4246 1986.63 71.4246C1978.64 71.4246 1971.31 73.2975 1964.64 77.0373C1958.06 80.7771 1952.81 86.0877 1948.87 92.9632C1944.92 99.8386 1942.95 107.977 1942.95 117.378ZM1868.34 117.68C1868.34 99.8869 1871.42 83.7617 1877.59 69.304C1883.76 54.7435 1892.25 42.3098 1903.07 31.9966C1913.98 21.6835 1926.57 13.7991 1940.83 8.33744C1955.19 2.77911 1970.45 0 1986.63 0C2002.9 0 2018.17 2.77911 2032.42 8.33744C2046.79 13.7991 2059.37 21.6835 2070.19 31.9966C2081.01 42.3098 2089.5 54.7435 2095.67 69.304C2101.83 83.7617 2104.92 99.8869 2104.92 117.68C2104.92 135.781 2101.83 152.057 2095.67 166.514C2089.6 180.869 2081.16 193.104 2070.34 203.212C2059.52 213.223 2046.94 220.853 2032.58 226.116C2018.32 231.372 2003.01 234 1986.63 234C1970.35 234 1955.03 231.372 1940.68 226.116C1926.42 220.853 1913.89 213.223 1903.07 203.212C1892.25 193.104 1883.76 180.869 1877.59 166.514C1871.42 152.057 1868.34 135.781 1868.34 117.68ZM2340.43 5.45563L2281.14 109.946L2344.68 227.481H2252.17L2221.08 159.234L2190 227.481H2097.49L2161.03 109.946L2101.73 5.45563H2195L2221.08 66.7242L2247.17 5.45563H2340.43Z" fill="#F40E00"/>
<path opacity="0.8" d="M1717.63 296.179C1716.22 293.588 1714.19 291.626 1711.52 290.294C1708.93 288.887 1705.86 288.184 1702.31 288.184C1696.16 288.184 1691.24 290.22 1687.54 294.291C1683.84 298.289 1681.99 303.656 1681.99 310.392C1681.99 317.573 1683.91 323.199 1687.76 327.271C1691.68 331.268 1697.05 333.267 1703.86 333.267C1708.52 333.267 1712.45 332.083 1715.63 329.714C1718.89 327.345 1721.26 323.94 1722.74 319.498H1698.64V305.507H1739.95V323.162C1738.54 327.9 1736.14 332.305 1732.73 336.376C1729.4 340.448 1725.14 343.742 1719.96 346.259C1714.78 348.776 1708.93 350.034 1702.42 350.034C1694.72 350.034 1687.83 348.369 1681.76 345.038C1675.77 341.632 1671.07 336.931 1667.66 330.935C1664.33 324.939 1662.66 318.091 1662.66 310.392C1662.66 302.693 1664.33 295.846 1667.66 289.85C1671.07 283.779 1675.77 279.078 1681.76 275.747C1687.76 272.342 1694.61 270.639 1702.31 270.639C1711.63 270.639 1719.48 272.897 1725.85 277.413C1732.29 281.929 1736.54 288.184 1738.62 296.179H1717.63ZM1819.42 334.822H1844.3V349.479H1800.44V271.528H1819.42V334.822ZM1940.19 350.257C1932.86 350.257 1926.12 348.554 1919.98 345.149C1913.91 341.743 1909.06 337.006 1905.43 330.935C1901.88 324.791 1900.1 317.906 1900.1 310.281C1900.1 302.656 1901.88 295.809 1905.43 289.739C1909.06 283.668 1913.91 278.93 1919.98 275.525C1926.12 272.12 1932.86 270.417 1940.19 270.417C1947.52 270.417 1954.22 272.12 1960.29 275.525C1966.43 278.93 1971.25 283.668 1974.72 289.739C1978.28 295.809 1980.05 302.656 1980.05 310.281C1980.05 317.906 1978.28 324.791 1974.72 330.935C1971.17 337.006 1966.36 341.743 1960.29 345.149C1954.22 348.554 1947.52 350.257 1940.19 350.257ZM1940.19 332.934C1946.41 332.934 1951.37 330.861 1955.07 326.716C1958.85 322.57 1960.73 317.092 1960.73 310.281C1960.73 303.397 1958.85 297.919 1955.07 293.847C1951.37 289.701 1946.41 287.629 1940.19 287.629C1933.9 287.629 1928.86 289.664 1925.09 293.736C1921.39 297.808 1919.54 303.323 1919.54 310.281C1919.54 317.166 1921.39 322.681 1925.09 326.827C1928.86 330.898 1933.9 332.934 1940.19 332.934ZM2087.78 309.504C2092.3 310.466 2095.92 312.724 2098.66 316.278C2101.4 319.757 2102.77 323.754 2102.77 328.27C2102.77 334.785 2100.48 339.967 2095.89 343.816C2091.37 347.592 2085.04 349.479 2076.9 349.479H2040.59V271.528H2075.68C2083.6 271.528 2089.78 273.341 2094.22 276.969C2098.74 280.596 2100.99 285.519 2100.99 291.737C2100.99 296.327 2099.77 300.139 2097.33 303.175C2094.96 306.21 2091.78 308.32 2087.78 309.504ZM2059.58 303.064H2072.01C2075.12 303.064 2077.49 302.397 2079.12 301.065C2080.82 299.658 2081.67 297.623 2081.67 294.957C2081.67 292.292 2080.82 290.257 2079.12 288.85C2077.49 287.444 2075.12 286.74 2072.01 286.74H2059.58V303.064ZM2073.57 334.155C2076.75 334.155 2079.19 333.452 2080.9 332.046C2082.67 330.565 2083.56 328.455 2083.56 325.716C2083.56 322.977 2082.64 320.83 2080.78 319.276C2079.01 317.721 2076.53 316.944 2073.34 316.944H2059.58V334.155H2073.57ZM2212.28 335.71H2183.19L2178.52 349.479H2158.65L2186.85 271.528H2208.84L2237.04 349.479H2216.94L2212.28 335.71ZM2207.39 321.052L2197.73 292.515L2188.18 321.052H2207.39ZM2314.58 334.822H2339.46V349.479H2295.59V271.528H2314.58V334.822Z" fill="#212121"/>
</svg>
